<?xml version="1.0" encoding="UTF-8"?>
<!DOCTYPE svg PUBLIC "-//W3C//DTD SVG 1.0//EN" "http://www.w3.org/TR/2001/REC-SVG-20010904/DTD/svg10.dtd">
<!-- Creator: CorelDRAW 2019 (64-Bit) -->
<svg xmlns="http://www.w3.org/2000/svg" xml:space="preserve"  width="600" height="600"  version="1.0" style="shape-rendering:geometricPrecision; text-rendering:geometricPrecision; image-rendering:optimizeQuality; fill-rule:evenodd; clip-rule:evenodd"
viewBox="0 0 21000 29700"
 xmlns:xlink="http://www.w3.org/1999/xlink"
 xmlns:xodm="http://www.corel.com/coreldraw/odm/2003">
 <defs>
  <style type="text/css">
   <![CDATA[
.str0 {stroke:blue;stroke-width:70;stroke-miterlimit:22.9256}
.str1 {stroke:pink;stroke-width:70}
.str2 {stroke:red;stroke-width:70}
.str3 {stroke:purple;stroke-width:70}
 .fil0 {fill:orange}
.fil1{fill:grey}
.fil2{fill:yellow}
.fil3{fill:red;fill-opacity:.5;}
.fil4{fill:aqua}
.fil5{fill:black}
.fil6{fill:pink}
.fil7{fill:#00BFFF}
   ]]>
  </style>
 <clipPath id="id0">
     <path d="M19142.04 3378.53l-5013.77 -538.57 0 8198.71 5013.77 538.57 0 -8198.71z"/>
    </clipPath>
 </defs>


 <g id="ff">
  <metadata id="CorelCorpID_0Corel-Layer"/>
  <rect class="fil2 str0" x="2289.07" y="3320.64" width="3619.56" height="4059.78"/>
  <rect class="fil1 str0" x="1250" y="2953.78" width="1027.18" height="4842.39"/>
  <rect class="fil1 str0" x="5700" y="2960.78" width="1027.18" height="4842.39"/>
  <ellipse class="fil3 str0" cx="3998.85" cy="5350.53" rx="1609.78" ry="1829.89"/>
  <rect class="fil3 str0" x="3655.37" y="7200.33" width="684.78" height="4451.09"/>
<circle class="fil4 str0" r="870" cx="3570" cy="5470"/>;
<rect class="fil5 str0" x="3550" y="11600" width="900" height="900"/>
 </g>

 <g id="Слой_x0020_1">
  <metadata id="CorelCorpID_0Corel-Layer"/>
  <g id="_2848397825328">
   <g style="clip-path:url(#id0)">
    <image x="14128.27" y="2839.96" width="5013.77" height="8737.28" xlink:href="Two_Images\Two_ImgID1.png"/>
   </g>
  </g>
  <path class="fil6 str2" d="M14696.63 7313.66c1.52,126.23 -8.46,250.56 -24.84,372.47 -2.04,15.17 -4.21,30.31 -6.49,45.41l12.62 22.41 -38.6 34.04 12.61 22.42 -3.04 17.92c-0.04,0.2 -0.08,0.41 -0.11,0.6 -1,5.34 -2.03,10.7 -3.06,16.01 -0.62,3.18 -1.25,6.36 -1.87,9.54 -2.47,12.46 -5.02,24.91 -7.65,37.33l2.52 14.46 1.2 6.89 -25.16 35.3 3.71 21.36 -0.32 1.39c-58.71,241.74 -149.06,472.16 -266.58,686.56 -3,5.49 -6.03,10.96 -9.07,16.42l1.97 24.24 -44 20.76 1.96 24.24 -7.63 13.17c-20.77,34.56 -42.27,68.66 -64.47,102.28l3.12 26.37 -51.44 13.24 3.11 26.38 -10.85 15.84c-175.67,247.19 -390.2,466.55 -634.97,649.2l-11.13 18.71 -42.51 9.51 -11.14 18.72 -1.79 1.3c-487.53,343.06 -1087.13,543.8 -1735.34,536.92 -57.25,-0.6 -114.1,-2.68 -170.5,-6.15l-21.16 14.46 -37.44 -35.01 -21.17 14.45 -17.96 -1.38c-642.62,-58.82 -1222.79,-302.98 -1678.32,-683.79l-26.92 0.55 -6.62 -53.46 -26.93 0.54 -14.77 -12.79c-2.86,-2.57 -5.72,-5.15 -8.57,-7.72l-21.7 -6.05 -15.09 -42.46 -21.71 -6.05 -5.57 -5.2c-556.07,-534.99 -888.98,-1292.66 -861.35,-2165.39 16.96,-535.78 -26.83,-777.66 -92.11,-1297.78 -24.89,-198.38 80.41,-2063.88 88.57,-2065.22 16.84,-2.77 851.39,494.61 867,503.13 1251.51,682.82 671.07,221.21 1871.64,148.14 222.67,-13.55 404.03,-1.54 624.53,24.85 794.29,110.7 812.77,59.2 1575.5,-189.2 20.49,-6.67 974.21,-335.89 976.86,-332.73 4.64,5.54 -154.44,1637.36 -162.46,1798.2 -22.77,456.36 28.32,576.89 101.59,945.41 2.35,11.82 4.72,23.92 7.12,36.28l8.63 6.1 14.17 10.02 -31.06 46.42 22.81 16.13 3.64 19.65c27.09,159.51 36.61,300.09 38.59,464.64z"/>
  <path class="fil7 str0" d="M10126.02 6559.77c394.53,0 714.37,139.05 410.62,178.52 303.75,303.61 -16.09,442.66 -410.62,178.53 -394.53,264.13 -714.37,125.08 -410.62,-178.53 -303.75,-39.47 16.09,-178.52 410.62,-178.52z"/>
  <path class="fil7 str0" d="M12962.98 6559.77c388.32,0 703.12,136.86 421.87,183.42 281.25,291.11 -33.55,427.98 -421.87,183.42 -388.32,244.56 -703.12,107.69 -421.87,-183.42 -281.25,-46.56 33.55,-183.42 421.87,-183.42z"/>
  <path class="fil5 str3" d="M11256.71 7967.63c73.84,-165.91 91.41,-167.65 269.25,-184.2 109.3,-10.18 145.41,15.59 220.49,93.11 80.21,82.83 45.43,147.27 106.39,235.09 69.67,100.37 115.39,147.1 47.48,272.37 -25.58,47.19 -78.71,116.73 -134.2,126.05 -70.93,11.91 -99.97,-12.77 -151.72,-60.69 -5.19,-4.81 -74.5,-75.41 -74.01,-68.2 2.15,31.25 0.77,-4.69 -0.97,-5.12 -4.72,10.47 -1.92,-6.77 -25.25,23 -34.93,44.57 -95.06,127.47 -154,133.51 -100.16,10.26 -159.87,-47.27 -184.24,-138.75 -27.36,-102.71 -42.44,-192.89 11.24,-289.85 28.5,-51.47 45.85,-81.03 69.54,-136.32z"/>
  <path class="fil3 str3" d="M10268.13 9974.16c-635.89,-127.67 -1119.26,99.1 -901.35,422.85 -217.91,235.69 265.46,462.45 901.35,422.84 556.63,39.61 1040,-187.15 901.33,-422.84 138.67,-323.75 -344.7,-550.52 -901.33,-422.85z"/>
  <path class="fil3 str3" d="M13345.74 9996.54c489,-147.97 950.85,64.72 827.1,380.9 123.75,208.56 -338.1,421.24 -827.1,380.89 -650.43,40.35 -1112.28,-172.33 -827.11,-380.89 -285.17,-316.18 176.68,-528.87 827.11,-380.9z"/>
  <path class="fil5 str2" d="M13836.07 7870.74c340.02,240.96 468.36,311.14 498.72,272.7 162.05,523.4 189.7,846.37 107.41,1254.98 -41.93,-96.78 -170.27,-166.96 -498.71,-272.71 136.03,-379.2 108.37,-702.18 -107.42,-1254.97z"/>
  <path class="fil5 str2" d="M8959.83 7777.15c137.22,380.16 243.08,500.54 354.66,403.3 -95.2,668.78 -187.78,1011.74 -310.19,1149.01 -122.39,137.29 -228.26,16.9 -354.67,-403.29 110.04,-151.34 202.62,-494.3 310.2,-1149.02z"/>
  <ellipse class="fil3 str0" cx="11498.85" cy="9350.53" rx="609.78" ry="309.89"/>
<circle fill="black" cx="10100" cy="6800" r="250"/>
<circle fill="black" cx="12950" cy="6800" r="250"/>
  </g>

</svg>
